<svg id="behance-logo" xmlns="http://www.w3.org/2000/svg" width="51" height="51" viewBox="0 0 51 51">
  <g id="Group_10" data-name="Group 10">
    <path id="Path_1557" data-name="Path 1557" d="M31.746,36.547c0-2.429-1.653-2.429-1.653-2.429h-6.8v5.213h6.378C30.774,39.33,31.746,38.978,31.746,36.547Z" transform="translate(-11.164 -16.337)"/>
    <path id="Path_1558" data-name="Path 1558" d="M30.094,50.846h-6.8v6.243H29.78c.976-.028,2.777-.333,2.777-3.035C32.557,50.813,30.094,50.846,30.094,50.846Z" transform="translate(-11.167 -24.354)"/>
    <path id="Path_1559" data-name="Path 1559" d="M65.551,44.011a4.179,4.179,0,0,0-4.112,3.6h7.674S69.159,44.011,65.551,44.011Z" transform="translate(-29.439 -21.066)"/>
    <path id="Path_1560" data-name="Path 1560" d="M25.5,0A25.5,25.5,0,1,0,51,25.5,25.5,25.5,0,0,0,25.5,0Zm5.56,15.051H40.6V17.9H31.06ZM26.236,29.993c0,7.061-7.348,6.829-7.348,6.829H6.849V13.688H18.887c3.658,0,6.546,2.02,6.546,6.159s-3.53,4.4-3.53,4.4C26.557,24.25,26.236,29.993,26.236,29.993Zm9.937,3.649c3.845,0,3.709-2.489,3.709-2.489h4.071c0,6.6-7.916,6.152-7.916,6.152-9.5,0-8.888-8.843-8.888-8.843s-.007-8.887,8.887-8.887c9.364,0,8.053,10.041,8.053,10.041H32.1A3.763,3.763,0,0,0,36.172,33.641Z"/>
  </g>
</svg>
