<svg xmlns="http://www.w3.org/2000/svg" width="153" height="153" viewBox="0 0 153 153">
  <g id="branding" transform="translate(-829 -2676)">
    <circle id="Ellipse_95" data-name="Ellipse 95" cx="76.5" cy="76.5" r="76.5" transform="translate(829 2676)" fill="#e9edf8"/>
    <circle id="Ellipse_32" data-name="Ellipse 32" cx="35" cy="35" r="35" transform="translate(869 2719)" fill="#333"/>
    <g id="font" transform="translate(878.182 2733.256)">
      <path id="Path_1606" data-name="Path 1606" d="M19.81,34.639h-3.8a.443.443,0,0,1-.413-.284l-1.4-3.648h-6.3L6.565,34.35a.443.443,0,0,1-.416.292H2.442a.443.443,0,0,1-.412-.6l6.741-17.31a.443.443,0,0,1,.412-.282h3.7a.443.443,0,0,1,.411.278L20.22,34.032a.443.443,0,0,1-.411.607Zm-3.5-.885h2.844L12.58,17.331H9.486L3.09,33.754H5.84l1.323-3.64a.443.443,0,0,1,.416-.292H14.5a.443.443,0,0,1,.413.284Zm-2.94-5.962H8.653a.443.443,0,0,1-.416-.594l2.338-6.423a.443.443,0,0,1,.414-.291h0a.443.443,0,0,1,.415.289L13.789,27.2a.443.443,0,0,1-.415.6Zm-4.091-.885h3.452l-1.741-4.7Z" transform="translate(-2 -16.446)" fill="#fff"/>
      <path id="Path_1607" data-name="Path 1607" d="M48.012,39.933a4.716,4.716,0,0,1-3.356-1.171A3.935,3.935,0,0,1,43.4,35.783a4.019,4.019,0,0,1,.572-2.124,3.768,3.768,0,0,1,1.608-1.443,11.422,11.422,0,0,1,2.748-.809,21.686,21.686,0,0,0,2.864-.685v-.027a1.328,1.328,0,0,0-.319-1.029,2.372,2.372,0,0,0-1.494-.3,1.968,1.968,0,0,0-1.127.266,2.018,2.018,0,0,0-.64,1.007.443.443,0,0,1-.5.289l-3.01-.541a.443.443,0,0,1-.348-.555A5.137,5.137,0,0,1,45.679,26.9a6.837,6.837,0,0,1,3.939-.955,8.242,8.242,0,0,1,3.5.57,3.739,3.739,0,0,1,1.726,1.52,7.127,7.127,0,0,1,.5,3.182L55.3,35.091a13.111,13.111,0,0,0,.15,2.346,6.709,6.709,0,0,0,.561,1.576.443.443,0,0,1-.4.636H52.333a.443.443,0,0,1-.412-.281c-.073-.185-.155-.429-.25-.743a6.146,6.146,0,0,1-1.419.858A5.673,5.673,0,0,1,48.012,39.933Zm1.37-11.452A3.175,3.175,0,0,1,51.454,29a2.136,2.136,0,0,1,.625,1.7v.331a.443.443,0,0,1-.271.408,18.239,18.239,0,0,1-3.313.841,10.754,10.754,0,0,0-2.528.738,2.857,2.857,0,0,0-1.239,1.106,3.1,3.1,0,0,0-.443,1.665,3.042,3.042,0,0,0,.977,2.334,3.868,3.868,0,0,0,2.748.929,4.792,4.792,0,0,0,1.9-.377,5.567,5.567,0,0,0,1.682-1.151.443.443,0,0,1,.723.162c.026.069.069.21.129.425.075.258.143.478.2.657h2.292a6.843,6.843,0,0,1-.351-1.151,13.7,13.7,0,0,1-.168-2.526l.035-3.877a6.227,6.227,0,0,0-.388-2.752,2.884,2.884,0,0,0-1.333-1.148,7.578,7.578,0,0,0-3.113-.481,6,6,0,0,0-3.429.793A4.037,4.037,0,0,0,44.761,29.6l2.158.389a2.567,2.567,0,0,1,.826-1.084A2.806,2.806,0,0,1,49.381,28.481ZM49,37.6a2.25,2.25,0,0,1-1.632-.634,2.062,2.062,0,0,1-.652-1.522,1.832,1.832,0,0,1,.836-1.53,6.193,6.193,0,0,1,1.97-.65c.9-.193,1.564-.359,1.971-.495a.443.443,0,0,1,.582.42v.662a6.688,6.688,0,0,1-.149,1.747,2.516,2.516,0,0,1-.95,1.323A3.325,3.325,0,0,1,49,37.6Zm2.19-3.818c-.393.1-.885.221-1.484.349a5.469,5.469,0,0,0-1.654.516.939.939,0,0,0-.451.8,1.191,1.191,0,0,0,.386.887A1.376,1.376,0,0,0,49,36.708a2.422,2.422,0,0,0,1.453-.506,1.629,1.629,0,0,0,.626-.863,5.918,5.918,0,0,0,.112-1.493Z" transform="translate(-25.078 -21.74)" fill="#fff"/>
    </g>
    <g id="color-palette" transform="translate(910.018 2786.38) rotate(-135)">
      <path id="Path_1608" data-name="Path 1608" d="M2.6,5.21A2.6,2.6,0,1,0,0,2.6,2.608,2.608,0,0,0,2.6,5.21ZM2.6.973A1.632,1.632,0,1,1,.973,2.6,1.634,1.634,0,0,1,2.6.973Z" transform="translate(5.694 11.783)" fill="#fff"/>
      <path id="Path_1609" data-name="Path 1609" d="M2.542,5.083A2.542,2.542,0,1,0,0,2.542,2.545,2.545,0,0,0,2.542,5.083Zm0-4.11A1.569,1.569,0,1,1,.973,2.542,1.57,1.57,0,0,1,2.542.973Z" transform="translate(12.002 8.967)" fill="#fff"/>
      <path id="Path_1610" data-name="Path 1610" d="M2.542,5.083A2.542,2.542,0,1,0,0,2.542,2.544,2.544,0,0,0,2.542,5.083Zm0-4.11A1.569,1.569,0,1,1,.973,2.542,1.57,1.57,0,0,1,2.542.973Z" transform="translate(6.898 25.655)" fill="#fff"/>
      <path id="Path_1611" data-name="Path 1611" d="M2.542,5.083A2.542,2.542,0,1,0,0,2.542,2.545,2.545,0,0,0,2.542,5.083Zm0-4.11A1.569,1.569,0,1,1,.973,2.542,1.57,1.57,0,0,1,2.542.973Z" transform="translate(13.413 27.575)" fill="#fff"/>
      <path id="Path_1612" data-name="Path 1612" d="M0,2.966A2.966,2.966,0,1,0,2.966,0,2.969,2.969,0,0,0,0,2.966ZM2.966.973A1.993,1.993,0,1,1,.973,2.966,2,2,0,0,1,2.966.973Z" transform="translate(2.518 18.369)" fill="#fff"/>
      <path id="Path_1613" data-name="Path 1613" d="M0,20.74c0,7.846,6.777,13.81,14.685,14.29h.032a.52.52,0,0,0,.031-1.039C7.063,33.525,1.043,27.7,1.043,20.74c0-7.89,7.533-13.979,16.14-13.2a4.72,4.72,0,0,0,1.378.972,1.226,1.226,0,0,0,.016.576l1.032,3.786a1.11,1.11,0,0,0-.228,1.013l.246.9a1.116,1.116,0,0,0,1.262.8l.487,2.1c-1.761.8-2.725,1.872-2.725,3.046s.984,2.268,2.772,3.068a5.008,5.008,0,0,1,1.637,1.16,44.2,44.2,0,0,0,1.17,4.571,4.879,4.879,0,0,1-3.211,3.574,16.066,16.066,0,0,1-3.914.846A.52.52,0,1,0,17.2,35a17.112,17.112,0,0,0,4.169-.9,5.986,5.986,0,0,0,3.428-3.038,28.007,28.007,0,0,0,1.924,3.789,1.321,1.321,0,0,0,2.466-.669,25.265,25.265,0,0,0-1.2-8.264.521.521,0,0,0-1,.311,24.316,24.316,0,0,1,1.152,7.963.278.278,0,0,1-.518.141c-2.194-3.816-2.471-4.948-3.577-9.725L21.9,15.322l1.532-.416.777,2.469h0l2.055,6.532a.521.521,0,0,0,1-.311l-1.9-6.046A4.252,4.252,0,0,0,26.571,10.4a15.773,15.773,0,0,0-3.359-2.232l-.085-.313a1.206,1.206,0,0,0-.279-.5,4.056,4.056,0,0,0,.669-3.378,3.875,3.875,0,0,0-2.226-2.417A7.917,7.917,0,0,1,19.534.3a1,1,0,0,0-1.692.459,7.888,7.888,0,0,1-.879,1.968,3.733,3.733,0,0,0-.511,3.72C7.6,6.069,0,12.472,0,20.74ZM22.674,23.3a6.332,6.332,0,0,0-.824-.445c-1.37-.614-2.156-1.386-2.156-2.119,0-.7.692-1.415,1.922-2.009Zm3.211-12.123a3.214,3.214,0,0,1-.844,5.374l-.606-1.927a1.114,1.114,0,0,0,.68-1.33l-.246-.9a1.114,1.114,0,0,0-.711-.758l-.571-2.095A14.6,14.6,0,0,1,25.885,11.181Zm-2.108,1.44h0a.07.07,0,0,1,.086.049l.246.9a.07.07,0,0,1-.049.086l-3.34.906a.07.07,0,0,1-.086-.049l-.246-.9a.071.071,0,0,1,.049-.086Zm-.675-.895-2.537.688-.981-3.6a.176.176,0,0,1,.123-.213l2.2-.6a.175.175,0,0,1,.214.122ZM17.869,3.242a8.973,8.973,0,0,0,.967-2.164,8.988,8.988,0,0,0,1.933,1.378c.863.5,1.486.855,1.74,1.789a3.155,3.155,0,0,1-.668,2.718,1.3,1.3,0,0,0-.21.038l-2.2.6a1.311,1.311,0,0,0-.2.073,3.127,3.127,0,0,1-1.956-2.007A2.931,2.931,0,0,1,17.869,3.242Z" transform="translate(0 0)" fill="#fff"/>
    </g>
  </g>
</svg>
