<svg xmlns="http://www.w3.org/2000/svg" width="138" height="138" viewBox="0 0 138 138">
  <g id="camera" transform="translate(-614 -909)">
    <circle id="Ellipse_79" data-name="Ellipse 79" cx="69" cy="69" r="69" transform="translate(614 909)" fill="rgba(250,128,114,0.15)"/>
    <g id="Group_20" data-name="Group 20" transform="translate(593.752 902.232)">
      <path id="Path_1629" data-name="Path 1629" d="M73.883,127.266c-.115-1.947-.344-9.966-.344-9.966a2.759,2.759,0,0,1-1.145-1.718c-.115-1.031-.115-7.445-.115-7.445l1.145-1.833-.229-1.833H71.248l.115,10.195-1.031.115.458,11.34-.8,1.6.229,8.935a5.514,5.514,0,0,0,1.489,2.176c.8.458,3.436.229,3.436.229v-9.622S74,129.213,73.883,127.266Z" transform="translate(-6.668 -27.07)" fill="#333"/>
      <path id="Path_1630" data-name="Path 1630" d="M63.647,117.966l3.047-.115v-2.52Z" transform="translate(-4.073 -31.515)" fill="#333"/>
      <path id="Path_1631" data-name="Path 1631" d="M57.937,140.348a4.238,4.238,0,1,0,4.238,4.239A4.239,4.239,0,0,0,57.937,140.348Zm-.087,6.023a1.875,1.875,0,1,1,1.875-1.875A1.875,1.875,0,0,1,57.849,146.371Z" transform="translate(0 -41.755)" fill="#333"/>
      <path id="Path_1632" data-name="Path 1632" d="M57.8,130.652l-1.585,3.322,1.219,1.489,1.828-.115a6.251,6.251,0,0,1,3.656,1.374l1.1.229-.244-6.3Zm.6,1.087a5.8,5.8,0,0,1-.751,1.5,2.726,2.726,0,0,1-.244.3,2.805,2.805,0,0,1,.1-.378,5.882,5.882,0,0,1,.321-.779,5.8,5.8,0,0,1,.43-.724,2.816,2.816,0,0,1,.245-.3A2.694,2.694,0,0,1,58.4,131.739Z" transform="translate(-1.032 -37.787)" fill="#333"/>
      <path id="Path_1633" data-name="Path 1633" d="M59.268,121.872l-.366.8v2.75l5.972.114v-4.353l-3.9-.229S59.633,121.07,59.268,121.872ZM59.9,123.8a3.545,3.545,0,0,1-.108.653,1.773,1.773,0,0,1-.1.293,1.762,1.762,0,0,1-.061-.3,3.553,3.553,0,0,1,.092-1.314,1.742,1.742,0,0,1,.1-.292,1.762,1.762,0,0,1,.061.3A3.511,3.511,0,0,1,59.9,123.8Z" transform="translate(-2.13 -33.817)" fill="#333"/>
      <path id="Path_1634" data-name="Path 1634" d="M109.116,136.456a3.7,3.7,0,0,0,.493-1.847v-3.375H77.879v3.375a3.727,3.727,0,0,0,3.727,3.727h1.249v1.746l-3.107-.026-.115,9.964H95.9a7.68,7.68,0,0,1-2.978-5.269c-.229-3.322.344-4.582.344-4.582l-1.626-.014v-1.819h3.789a8.807,8.807,0,1,0,13.687-1.879Zm-20.13,1.88h1.784v1.812l-1.784-.015Zm1.727,3c-.272.012-.661.04-1.128.053s-1.011.037-1.594.046-1.2.014-1.827.017-1.245-.005-1.828-.018-1.128-.033-1.594-.045-.856-.041-1.128-.053l-.428-.028.428-.028c.272-.011.661-.04,1.128-.053s1.011-.037,1.594-.045,1.206-.015,1.828-.018,1.244.005,1.827.017,1.128.033,1.594.046.855.041,1.128.053l.428.028Zm12.3,8.725c-.752,0-1.273-.8-1.625-1.926a5.575,5.575,0,0,1,0-10.666c.352-1.126.873-1.926,1.625-1.926s1.273.8,1.625,1.926a5.575,5.575,0,0,1,0,10.666C104.288,149.262,103.767,150.061,103.015,150.061Zm7.468-7.657a7.746,7.746,0,0,0-.4-2.182,8.188,8.188,0,0,0-.648-1.444c-.193-.331-.318-.514-.318-.514l.1.124c.066.08.157.2.268.36a7.206,7.206,0,0,1,.752,1.419,7.294,7.294,0,0,1,.5,2.224,6.066,6.066,0,0,1,.008.64,5.723,5.723,0,0,1-.042.649l-.037.333-.062.328a5.832,5.832,0,0,1-.156.653,7.927,7.927,0,0,1-.493,1.242c-.1.194-.211.386-.32.572s-.232.362-.359.529a7.531,7.531,0,0,1-1.626,1.6l-.4.269-.376.211c-.234.134-.456.219-.628.3-.361.139-.57.21-.57.21l.546-.261c.166-.1.377-.2.6-.347l.354-.234.374-.283a7.9,7.9,0,0,0,.777-.711,8.89,8.89,0,0,0,.745-.9c.122-.163.224-.343.34-.516s.2-.368.3-.557a7.812,7.812,0,0,0,.458-1.2,5.638,5.638,0,0,0,.159-.627l.064-.315.04-.315a5.5,5.5,0,0,0,.05-.635A5.654,5.654,0,0,0,110.484,142.4Z" transform="translate(-9.898 -38.025)" fill="#333"/>
      <path id="Path_1635" data-name="Path 1635" d="M121.455,147.143c.018-.086.025-.168.038-.244a2.59,2.59,0,0,0,.04-.387l.014-.324s-.007.112-.02.323a2.522,2.522,0,0,1-.047.386c-.014.075-.022.157-.042.242l-.072.27a4.121,4.121,0,0,1-.6,1.275,4.313,4.313,0,0,1-2.495,1.745,23.44,23.44,0,0,0,0-8.479,4.309,4.309,0,0,1,2.494,1.742,4.106,4.106,0,0,1,.6,1.275c.025.095.049.185.072.269s.028.167.042.243a2.524,2.524,0,0,1,.047.385c.013.211.02.324.02.324l-.014-.324a2.589,2.589,0,0,0-.04-.387c-.012-.076-.02-.158-.038-.244l-.067-.272a4.886,4.886,0,0,0-.564-1.307,4.763,4.763,0,0,0-2.63-2.044c-.311-1.295-.751-2.105-1.24-2.105-.473,0-.9.757-1.209,1.978a4.614,4.614,0,0,0-.776.229,5.125,5.125,0,0,0-1.2.683,5.246,5.246,0,0,0-.975,1.035,4.884,4.884,0,0,0-.641,1.306,5.165,5.165,0,0,0-.164.73,4.557,4.557,0,0,0,.165,2.175,4.845,4.845,0,0,0,.642,1.3,4.754,4.754,0,0,0,2.17,1.718,5.312,5.312,0,0,0,.775.23c.308,1.221.736,1.978,1.209,1.978.489,0,.93-.811,1.24-2.107a4.8,4.8,0,0,0,3.193-3.35Zm-6.237,2.963a4.477,4.477,0,0,1-1.761-1.6,5.107,5.107,0,0,1-.5-1.11,4.649,4.649,0,0,1-.167-1.21,5.242,5.242,0,0,1,.046-.623,4.353,4.353,0,0,1,.122-.587,5.076,5.076,0,0,1,.5-1.11,4.477,4.477,0,0,1,1.76-1.6c.127-.063.257-.117.387-.167a23.652,23.652,0,0,0,0,8.168C115.475,150.222,115.344,150.167,115.217,150.107Zm2.749-1.953c-.037.653-.112,1.26-.183,1.778s-.163.946-.228,1.243-.12.464-.12.464.033-.171.079-.472.1-.732.149-1.25.086-1.125.116-1.774.04-1.345.022-2.036c0-.346-.014-.693-.034-1.033s-.046-.675-.077-1c-.063-.646-.132-1.25-.215-1.764s-.154-.943-.216-1.241l-.1-.468a14.936,14.936,0,0,1,.434,1.688c.1.513.21,1.115.282,1.766.035.325.069.663.091,1.006s.042.692.05,1.041C118.025,146.8,118.005,147.5,117.966,148.154Z" transform="translate(-23.837 -41.41)" fill="#333"/>
      <path id="Path_1636" data-name="Path 1636" d="M109.609,97.338a3.727,3.727,0,0,0-3.727-3.727H81.606a3.727,3.727,0,0,0-3.727,3.727v3.376h31.73Zm-1.276-.749a1.112,1.112,0,0,0-.109-.206,1.728,1.728,0,0,0-.128-.195l-.146-.181c-.051-.058-.11-.11-.164-.165a1.483,1.483,0,0,0-.175-.152,2.029,2.029,0,0,0-.186-.139l-.194-.127c-.136-.075-.271-.15-.413-.211a4.164,4.164,0,0,0-.432-.169,5.4,5.4,0,0,0-.893-.22l-2.77.034c-.926.015-1.851.013-2.777.018l-2.777.011-2.777,0-2.777-.011c-.926,0-1.852-.016-2.777-.026l-2.777-.038-2.777-.061,2.777-.061,2.777-.038c.926-.011,1.851-.026,2.777-.027l2.777-.011,2.777,0,2.777.012c.926,0,1.851,0,2.777.018l2.777.034h.011a4.85,4.85,0,0,1,.918.258,4.306,4.306,0,0,1,.435.19,4.742,4.742,0,0,1,.414.233l.194.138a2.035,2.035,0,0,1,.184.149,1.554,1.554,0,0,1,.173.162c.053.058.11.113.16.175l.139.191a1.719,1.719,0,0,1,.119.2,1.1,1.1,0,0,1,.1.214l.08.221Z" transform="translate(-9.898 -22.624)" fill="#333"/>
      <rect id="Rectangle_1496" data-name="Rectangle 1496" width="31.318" height="1.894" transform="translate(68.187 78.68)" fill="#333"/>
      <rect id="Rectangle_1497" data-name="Rectangle 1497" width="31.318" height="1.894" transform="translate(68.187 90.6)" fill="#333"/>
      <path id="Path_1637" data-name="Path 1637" d="M109.906,117.514v-4.466a2.177,2.177,0,0,0-2.177-2.177H77.615a2.177,2.177,0,0,0-2.177,2.177v4.466a2.177,2.177,0,0,0,2.177,2.177h30.114A2.177,2.177,0,0,0,109.906,117.514Zm-1.355-3.261c-.013.548-.05,1.094-.09,1.639s-.1,1.089-.168,1.632c-.04-.546-.067-1.092-.093-1.636l-.073-1.63c-.014-.269-.029-.544-.052-.8-.009-.122-.021-.283-.04-.386a.8.8,0,0,0-.106-.294.9.9,0,0,0-.2-.237,1.514,1.514,0,0,0-.287-.177,1.766,1.766,0,0,0-.335-.123,2.162,2.162,0,0,0-.341-.064c-.645.009-1.29,0-1.935-.005-.325,0-.65-.011-.976-.017l-.975-.025c-.65-.022-1.3-.049-1.95-.086s-1.3-.08-1.95-.149c.65-.069,1.3-.109,1.95-.149s1.3-.064,1.95-.086l.975-.025c.325-.007.65-.017.976-.017.65,0,1.3-.015,1.95-.005h.022a2.638,2.638,0,0,1,.454.09,2.378,2.378,0,0,1,.429.165,1.758,1.758,0,0,1,.4.265,1.415,1.415,0,0,1,.307.393,1.316,1.316,0,0,1,.149.476,4.257,4.257,0,0,1,.026.428C108.564,113.707,108.557,113.978,108.551,114.253Z" transform="translate(-8.899 -29.69)" fill="#333"/>
      <path id="Path_1638" data-name="Path 1638" d="M70.476,66.739c.043,1.5.12,3.217.12,3.217l28.752-.115-.113-3.093h.019a14.2,14.2,0,0,0,0-28.408,16.348,16.348,0,0,0-5.935,1.276c-1.611.617-2.54,1.8-3.959,2.742a7.717,7.717,0,0,1-8.923-.288,14.2,14.2,0,1,0-9.962,24.669ZM94.1,40.843c.172-.074.425-.187.754-.311a14.932,14.932,0,0,1,2.809-.807,9.338,9.338,0,0,1,1.968-.143c.345.015.7.009,1.061.043l1.126.155c.376.079.751.18,1.135.272s.752.254,1.132.385a13.151,13.151,0,0,1,2.172,1.107l.262.161c.086.056.165.122.247.182l.489.369a9.952,9.952,0,0,1,.919.794,8.365,8.365,0,0,1,.825.865c.127.151.27.287.381.447l.341.468.334.461.282.482a7.856,7.856,0,0,1,.506.95c.139.321.3.621.408.933s.2.613.3.9.142.579.207.847a6.265,6.265,0,0,1,.143.771c.028.245.054.474.077.685a4.209,4.209,0,0,1,.044.581c.005.705,0,1.1,0,1.1s-.046-.4-.112-1.1a4.008,4.008,0,0,0-.09-.57q-.06-.309-.13-.666a6.125,6.125,0,0,0-.2-.743c-.085-.258-.141-.538-.253-.813s-.225-.562-.344-.858-.287-.581-.435-.885a7.574,7.574,0,0,0-.527-.9l-.287-.454-.333-.435-.338-.441c-.11-.151-.252-.278-.376-.42a9.977,9.977,0,0,0-.805-.815,9.424,9.424,0,0,0-.887-.753l-.471-.349c-.079-.057-.155-.119-.237-.172l-.251-.152a12.55,12.55,0,0,0-2.07-1.076l-.539-.2a4.374,4.374,0,0,0-.539-.187c-.365-.1-.725-.2-1.082-.288l-1.059-.18c-.351-.049-.711-.057-1.052-.087a10.212,10.212,0,0,0-1.9.042,16.639,16.639,0,0,0-2.819.587c-.671.2-1.054.32-1.054.32ZM84.615,66.56l4.238.019c1.353,0,2.615.032,3.7.044s1.983.041,2.614.053l.992.028-.992.028c-.631.012-1.533.04-2.614.053s-2.344.039-3.7.044l-4.238.019-4.237-.019c-1.353-.005-2.615-.032-3.7-.044l-2.615-.053-.992-.028.992-.028,2.615-.053c1.082-.012,2.344-.038,3.7-.044ZM60.071,46.139c-.1.166-.214.324-.3.491l-.253.5-.248.481c-.073.162-.131.326-.2.484l-.184.467-.09.226q-.034.115-.067.227l-.251.851c-.079.268-.107.527-.158.763s-.09.455-.12.654c-.071.8-.119,1.263-.119,1.263s0-.462.008-1.269c.045-.4.089-.9.182-1.456q.091-.416.195-.882l.054-.237.079-.234.165-.487c.058-.165.11-.337.177-.507l.23-.508.24-.525c.085-.176.195-.342.293-.518l.31-.529c.1-.181.237-.341.357-.516l.377-.52c.128-.174.284-.328.428-.5l.443-.5c.159-.157.328-.308.493-.463s.33-.315.507-.46l.552-.418A13.035,13.035,0,0,1,65.593,40.6a5.768,5.768,0,0,1,.657-.259l.663-.24c.452-.125.906-.239,1.357-.346.459-.065.913-.148,1.364-.187.455-.014.9-.046,1.346-.044a12.421,12.421,0,0,1,2.512.31,12.3,12.3,0,0,1,2.154.7,11.312,11.312,0,0,1,1.686.89,12.892,12.892,0,0,1,1.192.85c.314.257.55.471.7.623l.239.23-.26-.206c-.165-.139-.425-.322-.75-.557a12.681,12.681,0,0,0-1.233-.755,13.129,13.129,0,0,0-3.819-1.353,11.389,11.389,0,0,0-1.185-.165c-.408-.038-.812-.058-1.251-.059-.416.008-.851.048-1.284.071-.432.049-.865.136-1.3.2-.431.106-.865.218-1.3.34l-.633.235a5.672,5.672,0,0,0-.626.251,12.526,12.526,0,0,0-2.327,1.34l-.533.4c-.174.135-.331.289-.5.431s-.327.286-.484.434l-.436.469c-.141.158-.295.3-.422.468l-.378.49c-.121.164-.259.314-.363.486Z" transform="translate(-1.205)" fill="#333"/>
      <path id="Path_1639" data-name="Path 1639" d="M151.059,103.5a1.309,1.309,0,1,0,1.309,1.309A1.309,1.309,0,0,0,151.059,103.5Zm0,1.777a.468.468,0,1,1,.468-.468A.468.468,0,0,1,151.059,105.274Z" transform="translate(-39.317 -26.671)" fill="#333"/>
      <rect id="Rectangle_1498" data-name="Rectangle 1498" width="1.031" height="1.151" transform="translate(143.218 96.879)" fill="#333"/>
      <rect id="Rectangle_1499" data-name="Rectangle 1499" width="1.031" height="1.774" transform="translate(143.218 76.36)" fill="#333"/>
      <rect id="Rectangle_1500" data-name="Rectangle 1500" width="1.031" height="16.001" transform="translate(143.218 79.863)" fill="#333"/>
      <path id="Path_1640" data-name="Path 1640" d="M185.95,110.29h-.774l-.013,1.088h.787v1.133h-.8l-.095,7.905-.095-7.905h-4.114v-1.133h4.1l-.013-1.088h-4.087v-3.7l5.1-2.11-.019-1.774-5.5,2.874.022,1.573h-.71v-.944h-3.436v1.545h-.681l-.007-.341h-5.5l.034,1.786h-.709l-.012-.526h-5.5l.207,8.674h-1.428v-.371h.3v-1.833h-.3v-.8h.3v-1.833h-.3v-.8h.3v-1.833h-.3v-.389h1.221V109.2h-1.221v-.011h.3v-1.833h-3.436v1.833h.356v.688h-.356v1.833h.356v.8h-.356v1.833h.356v.8h-.356v1.833h.356v.8h-.356v1.833h3.436v-1.4h1.144l0,.085,5.5.115,0-.2h.667l.025,1.315,5.5.144,0-.161h.461v1.248h3.436V120.1h.9l0,.314,5.3,1.8v1.015l-5.3-2.81.013.9,5.5,3.061-.21-19.895Zm-24.79,7.491h-.931v-.8h.931Zm0-2.635h-.931v-.8h.931Zm0-2.634h-.931v-.8h.931Zm0-2.634h-.931v-.688h.931Zm1.27,7.473h-.639v.431h-.344v-.8h.983Zm0-2.2h-.983v-.8h.983Zm0-2.634h-.983v-.8h.983Zm0-2.634h-.983v-.688h.983Zm2.939-.3c.35-.036.816-.06,1.282-.061s.931.025,1.281.061.582.083.582.083-.233.048-.582.083-.816.06-1.281.061-.932-.025-1.282-.061-.582-.082-.582-.082S165.02,109.616,165.369,109.581Zm3.46,2.694H164.58v-1.794h4.249Zm.812,5.074-.185-7.862h.707l.149,7.862Zm2.066-9.158c.349-.037.815-.061,1.281-.062s.931.025,1.281.061.582.083.582.083-.233.048-.582.082-.815.06-1.281.061-.932-.025-1.281-.061-.582-.082-.582-.082S171.356,108.225,171.706,108.192Zm3.327,2.793h-4.249V109.19h4.249ZM176.8,109.2h-.488v2.175h.488v.952h-.488v2.175h.488v.952h-.488v2.175h.488v.952h-.488v.065h-.477l-.2-10.6h.676v.343h1.574v.816h-.8v-.816H176.8Zm.288,3.127v-.952h.8v.952Zm.8,2.175v.952h-.8v-.952Zm1.258,4.079h-2.056v-.952h.8v.91h.288v-.91h.97Zm0-3.127h-.97v-.952h.97Zm0-3.127h-.97v-.952h.97Zm.6,6.911v-.657h-.317v-.952h.317v-2.175h-.317v-.952h.317V112.33h-.317v-.952h.317V109.2h-.317v-.816h-.288v.816h-.97v-.816h1.575v-.944h.714l.172,11.8Z" transform="translate(-43.343 -26.349)" fill="#333"/>
      <path id="Path_1641" data-name="Path 1641" d="M159.571,124.972c.025-.519.045-1.038.065-1.558l.012-.317-.342-.013-1.432-.054-1.432-.041c-.955-.022-1.91-.06-2.864-.071l-.488-.005-.008.5-.02,1.184c-.689-.011-1.379-.022-2.069-.023l-2.584-.014c-.862-.009-1.723,0-2.585,0l-2.584.014h-.18l-1.046-1.644H146.3v-9.89h-5.5v-.916h-4.714v2.711h1.833v1.527H137.3V115.31h-1.874v-3.18h-1.146v17.84l1.146,2.265v-.059q.149.5.31.987c-.085-.445-.165-.89-.236-1.336-.026-.157-.05-.314-.074-.471V128.38l1.82.1c.666.037,1.331.072,2,.1,1.331.056,2.662.123,3.993.161l.505.015.008-.519.04-2.549,2.041.011c.862,0,1.723.013,2.585,0l2.584-.014c.861,0,1.723-.016,2.584-.031l.533-.009-.009-.516-.02-1.232c.787-.015,1.573-.041,2.36-.06l1.432-.041,1.116-.042c.018.487.035.975.061,1.462l.014.272.246-.017c.727-.051,1.454-.1,2.18-.155s1.453-.116,2.18-.187c-.729-.041-1.457-.073-2.185-.1C160.847,125,160.209,124.989,159.571,124.972Zm-17.63-11.29c.361-.018.722-.028,1.084-.036.723-.019,1.445-.039,2.168-.045h.131l0,.133c.021,1.293.03,2.585.017,3.878,0,.646-.024,1.293-.034,1.939s-.038,1.293-.071,1.939c-.04-.646-.072-1.292-.093-1.938s-.047-1.292-.056-1.939c-.027-1.249-.033-2.5-.028-3.748-.679-.007-1.357-.025-2.035-.043-.361-.008-.722-.018-1.084-.036s-.723-.029-1.084-.051C141.219,113.711,141.58,113.7,141.941,113.682Zm-.1,9.255Zm-4.547-5.6h.618v2.574H137.3Zm1.957,10.408c-.666,0-1.332.014-2,.026l-1.833.033v-5.539H137.3v-1.381h.618v2.049h-1.833v3.241h5.762V123.2l.877,1.379h-.04l.008.548.032,2.083-.758-1.117-.238.161,1,1.474C141.569,127.729,140.411,127.741,139.254,127.748Z" transform="translate(-32.984 -30.205)" fill="#333"/>
      <path id="Path_1642" data-name="Path 1642" d="M148.158,97.393l.12,2.352.122-2.376.031,0V95.956l-4.322-.07-.646-1.021a2.609,2.609,0,0,0-3.067-1.3c-1.691.26-2.355,2.878-2.355,2.878h-2.753v1.247h-.659v-1.32h-2.292v6.781l.859.377h1.432v-1.785h.659v1.785l5.107.058.366.917,4.742.148,2.929-1.79v-2.351a1.571,1.571,0,0,1-.273-3.119Zm-12.87,3.38h-.659V98.663h.659Zm8.643,2.823a2.878,2.878,0,0,1-2.152-4.793,2.042,2.042,0,1,1,.9-.68,2.88,2.88,0,1,1,1.252,5.473Z" transform="translate(-32.19 -22.579)" fill="#333"/>
      <rect id="Rectangle_1501" data-name="Rectangle 1501" width="1.554" height="9.736" transform="translate(113.956 82.996)" fill="#333"/>
      <circle id="Ellipse_40" data-name="Ellipse 40" cx="0.574" cy="0.574" r="0.574" transform="translate(108.276 73.685)" fill="#333"/>
    </g>
  </g>
</svg>
