<svg xmlns="http://www.w3.org/2000/svg" width="153" height="153" viewBox="0 0 153 153">
  <g id="content_organization" data-name="content organization" transform="translate(-1049 -2453)">
    <circle id="Ellipse_91" data-name="Ellipse 91" cx="76.5" cy="76.5" r="76.5" transform="translate(1049 2453)" fill="rgba(39,77,189,0.1)"/>
    <circle id="Ellipse_35" data-name="Ellipse 35" cx="35" cy="35" r="35" transform="translate(1091 2494)" fill="#333"/>
    <g id="sitemap" transform="translate(1109.001 2508.22)">
      <path id="Path_1614" data-name="Path 1614" d="M27.465,27.2h2.32a1.547,1.547,0,0,0,1.544-1.545V19.47a1.547,1.547,0,0,0-1.544-1.545H27.468V14.061a.773.773,0,0,0-.773-.773h-11.6V10.2H25.905A1.547,1.547,0,0,0,27.45,8.654V1.545A1.547,1.547,0,0,0,25.905,0H2.738A1.547,1.547,0,0,0,1.193,1.545V8.654A1.547,1.547,0,0,0,2.738,10.2H13.549v3.09H1.984a.773.773,0,0,0-.773.773v3.863H-1.1A1.547,1.547,0,0,0-2.649,19.47v6.181A1.547,1.547,0,0,0-1.1,27.2h2.3v3.157a4.633,4.633,0,1,0,1.545,0V27.2H5.073a1.546,1.546,0,0,0,1.545-1.545V19.47a1.546,1.546,0,0,0-1.545-1.545H2.756V14.834H13.549v3.091h-2.3A1.547,1.547,0,0,0,9.706,19.47v6.181A1.547,1.547,0,0,0,11.251,27.2h2.3v3.157a4.634,4.634,0,1,0,1.545,0V27.2h2.336a1.547,1.547,0,0,0,1.544-1.545V19.47a1.547,1.547,0,0,0-1.544-1.545H15.093V14.834h10.83v3.091H23.607a1.547,1.547,0,0,0-1.545,1.545v6.181A1.547,1.547,0,0,0,23.607,27.2H25.92l-.012,3.156a4.635,4.635,0,1,0,1.544,0h0ZM5.054,34.924a3.089,3.089,0,1,1-3.089-3.091A3.093,3.093,0,0,1,5.054,34.924ZM5.073,19.47v6.181H-1.1V19.47ZM17.41,34.924a3.089,3.089,0,1,1-3.089-3.091A3.093,3.093,0,0,1,17.41,34.924Zm.019-15.454v6.181H11.251V19.47ZM2.738,8.654V1.545H25.905V4.169H17.41a.773.773,0,0,0,0,1.545h8.5v2.94H2.738Zm27.028,26.27a3.089,3.089,0,1,1-3.092-3.091h0A3.094,3.094,0,0,1,29.766,34.924Zm-6.16-9.273V19.47h6.178v6.181H23.607Zm0,0" transform="translate(2.668)" fill="#fff"/>
      <path id="Path_1615" data-name="Path 1615" d="M260.48,68.987a.773.773,0,0,1,0-1.545h0a.773.773,0,0,1,0,1.545Zm0,0" transform="translate(-243.489 -63.273)" fill="#fff"/>
    </g>
  </g>
</svg>
