<svg id="Layer_5" enable-background="new 0 0 64 64" height="512" viewBox="0 0 64 64" width="512" xmlns="http://www.w3.org/2000/svg" xmlns:xlink="http://www.w3.org/1999/xlink"><linearGradient id="SVGID_1_" gradientUnits="userSpaceOnUse" x1="32" x2="32" y1="63" y2="1"><stop offset="0" stop-color="#9f2fff"/><stop offset="1" stop-color="#0bb1d3"/></linearGradient><path d="m43 14v1h-2v-1c0-.552-.449-1-1-1s-1 .448-1 1v4c0 .552.449 1 1 1s1-.448 1-1v-1h2v1c0 1.654-1.346 3-3 3s-3-1.346-3-3v-4c0-1.654 1.346-3 3-3s3 1.346 3 3zm5-1c.551 0 1 .448 1 1h2c0-1.654-1.346-3-3-3s-3 1.346-3 3 1.346 3 3 3c.551 0 1 .448 1 1s-.449 1-1 1-1-.448-1-1h-2c0 1.654 1.346 3 3 3s3-1.346 3-3-1.346-3-3-3c-.551 0-1-.448-1-1s.449-1 1-1zm5 1c0 1.654 1.346 3 3 3 .551 0 1 .448 1 1s-.449 1-1 1-1-.448-1-1h-2c0 1.654 1.346 3 3 3s3-1.346 3-3-1.346-3-3-3c-.551 0-1-.448-1-1s.449-1 1-1 1 .448 1 1h2c0-1.654-1.346-3-3-3s-3 1.346-3 3zm-11 26c0-1.654-1.346-3-3-3h-1v2h1c.551 0 1 .448 1 1 0 .771.301 1.468.78 2-.48.532-.78 1.229-.78 2 0 .552-.449 1-1 1h-1v2h1c1.654 0 3-1.346 3-3 0-.552.449-1 1-1h1v-2h-1c-.551 0-1-.448-1-1zm-10 0c0 .552-.449 1-1 1h-1v2h1c.551 0 1 .448 1 1 0 1.654 1.346 3 3 3h1v-2h-1c-.551 0-1-.448-1-1 0-.771-.301-1.468-.78-2 .48-.532.78-1.229.78-2 0-.552.449-1 1-1h1v-2h-1c-1.654 0-3 1.346-3 3zm-16-11h2v-2h-2zm-4 0h2v-2h-2zm8 0h2v-2h-2zm-4 10h4v-2h-4v-2h-2v12h2v-4h6v-2h-6zm47-23c0 6.885-4.668 12.685-11 14.442v22.558c1.654 0 3 1.346 3 3 0 3.859-3.14 7-7 7h-40c-3.86 0-7-3.141-7-7 0-1.654 1.346-3 3-3v-29c0-2.757 2.243-5 5-5h24.302c-.197-.97-.302-1.973-.302-3 0-8.271 6.729-15 15-15s15 6.729 15 15zm-11 39h-15.101c-.465 2.279-2.484 4-4.899 4h-8c-2.414 0-4.434-1.721-4.899-4h-15.101c-.551 0-1 .448-1 1 0 2.757 2.243 5 5 5h40c2.757 0 5-2.243 5-5 0-.552-.449-1-1-1zm-28 2h8c1.302 0 2.402-.839 2.816-2h-13.632c.414 1.161 1.514 2 2.816 2zm26-26.149c-.656.088-1.32.149-2 .149v18c0 1.103-.897 2-2 2h-36c-1.103 0-2-.897-2-2v-24c0-1.103.897-2 2-2h24.744c-.339-.639-.623-1.31-.868-2h-24.876c-1.654 0-3 1.346-3 3v29h44zm-40 18.149h36v-16h-36zm36-18.149c-4.066-.545-7.612-2.721-9.972-5.851h-26.028v6h36zm15-14.851c0-7.168-5.832-13-13-13s-13 5.832-13 13 5.832 13 13 13 13-5.832 13-13z" fill="url(#SVGID_1_)"/></svg>