<svg xmlns="http://www.w3.org/2000/svg" width="153" height="153" viewBox="0 0 153 153">
  <g id="front_end" data-name="front end" transform="translate(-1049 -2678)">
    <circle id="Ellipse_96" data-name="Ellipse 96" cx="76.5" cy="76.5" r="76.5" transform="translate(1049 2678)" fill="#ffecea"/>
    <circle id="Ellipse_33" data-name="Ellipse 33" cx="35" cy="35" r="35" transform="translate(1091 2720)" fill="#333"/>
    <path id="css" d="M32.295,10.686v.745H30.8v-.745a.745.745,0,1,0-1.49,0v2.98a.745.745,0,1,0,1.49,0v-.745h1.49v.745a2.235,2.235,0,0,1-4.471,0v-2.98a2.235,2.235,0,0,1,4.471,0Zm3.726-.745a.746.746,0,0,1,.745.745h1.49a2.235,2.235,0,1,0-2.235,2.235.745.745,0,1,1-.745.745h-1.49a2.235,2.235,0,1,0,2.235-2.235.745.745,0,0,1,0-1.49Zm3.726.745a2.238,2.238,0,0,0,2.235,2.235.745.745,0,1,1-.745.745h-1.49a2.235,2.235,0,1,0,2.235-2.235.745.745,0,1,1,.745-.745h1.49a2.235,2.235,0,0,0-4.471,0Zm-8.2,19.373a2.238,2.238,0,0,0-2.235-2.235h-.745v1.49h.745a.746.746,0,0,1,.745.745,2.221,2.221,0,0,0,.581,1.49,2.217,2.217,0,0,0-.581,1.49.746.746,0,0,1-.745.745h-.745v1.49h.745a2.238,2.238,0,0,0,2.235-2.235.746.746,0,0,1,.745-.745h.745V30.8h-.745A.746.746,0,0,1,31.549,30.059Zm-7.451,0a.746.746,0,0,1-.745.745h-.745v1.49h.745a.746.746,0,0,1,.745.745,2.238,2.238,0,0,0,2.235,2.235h.745v-1.49h-.745a.746.746,0,0,1-.745-.745,2.221,2.221,0,0,0-.581-1.49,2.217,2.217,0,0,0,.581-1.49.746.746,0,0,1,.745-.745h.745v-1.49h-.745A2.238,2.238,0,0,0,24.1,30.059Zm-11.922-8.2h1.49v-1.49h-1.49Zm-2.98,0h1.49v-1.49H9.2Zm5.961,0h1.49v-1.49h-1.49Zm-2.98,7.451h2.98v-1.49h-2.98v-1.49h-1.49v8.941h1.49v-2.98h4.471V30.8H12.177ZM47.2,12.177A11.188,11.188,0,0,1,39,22.937V39.746a2.238,2.238,0,0,1,2.235,2.235A5.222,5.222,0,0,1,36.02,47.2H6.216A5.222,5.222,0,0,1,1,41.981a2.238,2.238,0,0,1,2.235-2.235V18.137a3.73,3.73,0,0,1,3.726-3.726H25.068A11.177,11.177,0,1,1,47.2,12.177ZM39,41.236H27.749a3.732,3.732,0,0,1-3.65,2.98H18.137a3.733,3.733,0,0,1-3.65-2.98H3.235a.746.746,0,0,0-.745.745,3.73,3.73,0,0,0,3.726,3.726h29.8a3.73,3.73,0,0,0,3.726-3.726A.746.746,0,0,0,39,41.236Zm-20.863,1.49H24.1a2.232,2.232,0,0,0,2.1-1.49H16.039A2.232,2.232,0,0,0,18.137,42.726ZM37.51,23.242a11.169,11.169,0,0,1-1.49.111V36.765a1.492,1.492,0,0,1-1.49,1.49H7.706a1.492,1.492,0,0,1-1.49-1.49V18.883a1.492,1.492,0,0,1,1.49-1.49H26.143A11.1,11.1,0,0,1,25.5,15.9H6.961a2.238,2.238,0,0,0-2.235,2.235V39.746H37.51ZM7.706,36.765H34.53V24.843H7.706ZM34.53,23.242a11.166,11.166,0,0,1-7.43-4.36H7.706v4.471H34.53ZM45.706,12.177a9.686,9.686,0,1,0-9.686,9.686A9.7,9.7,0,0,0,45.706,12.177Z" transform="translate(1101.902 2729.268)" fill="#fff"/>
  </g>
</svg>
