<svg xmlns="http://www.w3.org/2000/svg" width="138" height="138" viewBox="0 0 138 138">
  <g id="grad_cap" data-name="grad cap" transform="translate(-614 -1223)">
    <circle id="Ellipse_80" data-name="Ellipse 80" cx="69" cy="69" r="69" transform="translate(614 1223)" fill="rgba(250,128,114,0.15)"/>
    <g id="Group_123" data-name="Group 123" transform="translate(411.52 1077.77)">
      <path id="Path_1701" data-name="Path 1701" d="M301.954,281.717c-11.711,0-21.529-1.65-24.245-3.878a5.773,5.773,0,0,0-.544.442c1.587,2.517,12.076,4.462,24.789,4.462,13.81,0,25-2.294,25-5.125a1.158,1.158,0,0,0-.127-.508C325.568,279.7,314.913,281.717,301.954,281.717Z" transform="translate(-27.949 -39.748)" fill="#333"/>
      <path id="Path_1702" data-name="Path 1702" d="M391.247,215.762a5.838,5.838,0,0,1,.964.18,2.1,2.1,0,0,1,.473.2.579.579,0,0,1,.095.068l.041.031.054.049c.077.068.132.127.194.193a3.955,3.955,0,0,1,.88,1.744c.069.265.109.493.136.653l.027.173a65.183,65.183,0,0,1,.013,8.035c.79.209,1.272,1.121,1.539,2.16l10.734-2.233s0-1.113-8.748-6.839c-.73-.477-1.571-1-2.489-1.542l-.013-.038c-.063-.171-.154-.414-.288-.7a5.893,5.893,0,0,0-.539-.942,4.009,4.009,0,0,0-.871-.9c-.085-.063-.18-.13-.26-.178l-.062-.039c-.034-.02-.055-.03-.083-.045a1.04,1.04,0,0,0-.158-.072,2.509,2.509,0,0,0-.6-.135,6.046,6.046,0,0,0-1.03,0,8.848,8.848,0,0,0-.978.124A8.864,8.864,0,0,1,391.247,215.762Z" transform="translate(-80.916 -10.926)" fill="#333"/>
      <path id="Path_1703" data-name="Path 1703" d="M311.877,216.394c.088-.047.172-.086.256-.12.035-1.755.127-7.691-.208-9.03a2.78,2.78,0,0,0-.767-1.312c-10.59-5.92-27.031-13.7-27.031-13.7s-5.885,2.863-20.518,7-46.126,11.452-46.126,11.452c6.68,5.408,28.948,13.52,28.948,13.52a52.413,52.413,0,0,1-.16-7.793c.318-2.386,3.977-5.567,9.226-7.158s18.252-5.875,31.652-3.5a24.769,24.769,0,0,1,15.11,9.225l-.477,6.044,8.457-1.76A3.435,3.435,0,0,1,311.877,216.394Zm-27.837-21.356v-1.119l25.026,12.443Z" fill="#333"/>
      <path id="Path_1704" data-name="Path 1704" d="M394.832,240.258s.049.488.116,1.343c.045.652.119,1.519.19,2.544.051,0,.1-.01.154-.012.167-.009,1.328.369,1.291.56a4.58,4.58,0,0,0,.068-.649c.085-1.946-.525-5.891-2.88-4.531-1.866,1.078-1.583,3.621-1.283,5.4a1.961,1.961,0,0,1,1.518-.676c.254-.028.509-.043.764-.062.007-1.035.026-1.911.031-2.569C394.813,240.749,394.832,240.258,394.832,240.258Z" transform="translate(-81.851 -22.012)" fill="#333"/>
      <path id="Path_1705" data-name="Path 1705" d="M397.977,253.641a3.759,3.759,0,0,1,1.275.544l-.2-3.356a4.137,4.137,0,0,0-1.275-.617l0,.073C397.85,251.3,397.915,252.433,397.977,253.641Z" transform="translate(-84.432 -27.152)" fill="#333"/>
      <path id="Path_1706" data-name="Path 1706" d="M394.875,250.019a2.469,2.469,0,0,0-2.307.9l-.066,3.093a6.973,6.973,0,0,1,2.387-.579c-.012-1.165-.018-2.259-.015-3.241C394.875,250.136,394.875,250.079,394.875,250.019Z" transform="translate(-81.961 -27.05)" fill="#333"/>
      <path id="Path_1707" data-name="Path 1707" d="M396.639,262.943c-.008-.8.39-3.058-.04-3.763a2.627,2.627,0,0,0-1.163-.952q.018.37.036.748c.039.917.08,1.865.121,2.828l.1,2.92c.026.979.052,1.958.078,2.921s.037,1.913.056,2.83c.031,1.835.043,3.55.039,5.019s-.028,2.695-.035,3.552-.032,1.348-.032,1.348-.049-.488-.116-1.344-.167-2.076-.256-3.543-.19-3.178-.274-5.012c-.039-.917-.091-1.864-.121-2.828s-.069-1.942-.1-2.921-.052-1.957-.078-2.921-.037-1.912-.055-2.83c0-.312-.01-.618-.013-.923a3.455,3.455,0,0,0-2.4.909c-.338.266.083,3.348.093,3.761l.227,9.179c.07,2.839.215,5.69.083,8.52a7.386,7.386,0,0,0,.372,3.39,13.357,13.357,0,0,0,.81,1.369c1.289,2.147,1.515,4.745,1.709,7.241,2.01-6.726,1.124-14.05,1.05-20.971Q396.686,267.208,396.639,262.943Z" transform="translate(-81.845 -30.83)" fill="#333"/>
      <path id="Path_1708" data-name="Path 1708" d="M323.928,225.521c-.242,4.216-1.089,19.041-1.089,19.634s-.88-16.749-1.1-21.132a29.185,29.185,0,0,0-12.878-4.433c-10.975-.954-19.405,2.068-24.654,3.181s-9.066,3.817-9.862,5.249-.636,4.454-.636,4.454l1.432,17.973s1.908-3.022,11.452-3.817,19.882,5.249,19.882,5.249.159-.636,5.727-3.022,13.2-.8,13.2-.8l1.432-20.041A24.182,24.182,0,0,0,323.928,225.521Zm-45.721,1.956c-1.678,2.1-2.8,3.5-2.517,8.249,0,0-.559-5.453,0-6.711s2.936-3.216,5.732-4.195a27.429,27.429,0,0,1,4.893-1.258S279.884,225.38,278.207,227.477Z" transform="translate(-26.324 -12.726)" fill="#333"/>
    </g>
  </g>
</svg>
