<svg xmlns="http://www.w3.org/2000/svg" width="153" height="153" viewBox="0 0 153 153">
  <g id="heuristics" transform="translate(-387 -2453)">
    <circle id="Ellipse_87" data-name="Ellipse 87" cx="76.5" cy="76.5" r="76.5" transform="translate(387 2453)" fill="rgba(250,128,114,0.15)"/>
    <circle id="Ellipse_28" data-name="Ellipse 28" cx="35" cy="35" r="35" transform="translate(429 2494)" fill="#333"/>
    <g id="noun_Heuristic_evaluation_2731508" data-name="noun_Heuristic evaluation_2731508" transform="translate(441.959 2506.859)">
      <g id="Group_19" data-name="Group 19" transform="translate(0 0)">
        <path id="Path_1594" data-name="Path 1594" d="M45.345,42.625H44.61V19.851a3.686,3.686,0,0,0-1.837-3.181l-.735,1.271a2.215,2.215,0,0,1,1.1,1.91V42.625H30.221a3.221,3.221,0,0,0-2.294.95,1.759,1.759,0,0,1-1.253.519H21.405a1.759,1.759,0,0,1-1.253-.519,3.221,3.221,0,0,0-2.294-.95H4.939V19.851a2.215,2.215,0,0,1,1.1-1.91L5.306,16.67a3.686,3.686,0,0,0-1.837,3.181V42.625H2.735A.735.735,0,0,0,2,43.36v2.2A2.939,2.939,0,0,0,4.939,48.5h38.2a2.939,2.939,0,0,0,2.939-2.939v-2.2A.735.735,0,0,0,45.345,42.625Zm-.735,2.939a1.469,1.469,0,0,1-1.469,1.469H4.939a1.469,1.469,0,0,1-1.469-1.469V44.095H17.858a1.759,1.759,0,0,1,1.253.519,3.222,3.222,0,0,0,2.291.95h5.275a3.222,3.222,0,0,0,2.291-.95,1.759,1.759,0,0,1,1.253-.519H44.61Z" transform="translate(-2 -7.362)" fill="#fff"/>
        <path id="Path_1595" data-name="Path 1595" d="M41.325,7.673V37.794h1.469V7.673A3.673,3.673,0,0,0,39.121,4H12.673A3.678,3.678,0,0,0,9,7.673V37.794h1.469V7.673a2.2,2.2,0,0,1,2.2-2.2H39.121A2.2,2.2,0,0,1,41.325,7.673Z" transform="translate(-3.857 -4)" fill="#fff"/>
        <rect id="Rectangle_1473" data-name="Rectangle 1473" width="25.909" height="1.727" transform="translate(8.67 5.989)" fill="#fff"/>
        <path id="Path_1596" data-name="Path 1596" d="M36.857,19.071l-9.384-3.125-9.384,3.125L14.936,27.74l3.152,8.669,9.384,3.125,9.384-3.125,3.152-8.669Zm1.322,7.934H36.772l-2.013-4.7a.734.734,0,0,0-.1-.155l1.322-1.209ZM26.737,26.07l-3.055-2.8,3.055-2.183Zm0,7.461-4.01-.445,4.01-3.673Zm1.469-4.121,3.429,3.144-3.429.857Zm0-8.621,3.88,1.725-3.88,3.556Zm5.061.642-5.061-2.25V17.739l6.664,2.222Zm-6.53-2.15-4.163,2.973-2.5-2.294,6.664-2.222Zm-1.154,7.724H23.064V24.7Zm0,1.469-3.474,3.187.794-3.187ZM21.289,34.4l5.448.609v2.731l-6.664-2.222Zm6.917.521,4.727-1.181,1.937,1.776-6.664,2.222Zm1.154-6.45h5.661l-1.946,3.406Zm0-1.469,4.174-3.825,1.639,3.825Zm-10.39-6.062,2.624,2.405v3.656H16.767Zm-2.2,7.531h4.622L20.148,33.44v.018l-1.175,1.078Zm19.207,6.062L34.187,32.9l2.527-4.423h1.463Z" transform="translate(-5.433 -7.17)" fill="#fff"/>
      </g>
    </g>
  </g>
</svg>
