<svg xmlns="http://www.w3.org/2000/svg" width="153" height="153" viewBox="0 0 153 153">
  <g id="ideation" transform="translate(-607 -2678)">
    <circle id="Ellipse_94" data-name="Ellipse 94" cx="76.5" cy="76.5" r="76.5" transform="translate(607 2678)" fill="#ffecea"/>
    <circle id="Ellipse_31" data-name="Ellipse 31" cx="35" cy="35" r="35" transform="translate(648 2719)" fill="#333"/>
    <g id="brainstorming_1_" data-name="brainstorming (1)" transform="translate(661.816 2729.268)">
      <path id="Path_1600" data-name="Path 1600" d="M124.487,148.067a.6.6,0,0,0-.769.369,15.819,15.819,0,0,0-.869,4.387h0a.1.1,0,0,1,0,.014c-.011.283-.021,2.032-.024,3.543a.6.6,0,0,0,.6.6h0a.6.6,0,0,0,.6-.593c0-1.706.014-3.275.023-3.5a14.585,14.585,0,0,1,.8-4.053.6.6,0,0,0-.369-.767Z" transform="translate(-116.982 -133.653)" fill="#fff"/>
      <path id="Path_1601" data-name="Path 1601" d="M141.907,122.8a.6.6,0,0,0,.53-.314c.082-.15.168-.3.255-.448a.6.6,0,1,0-1.037-.616c-.095.16-.188.323-.277.485a.6.6,0,0,0,.529.893Z" transform="translate(-133.605 -109.45)" fill="#fff"/>
      <path id="Path_1602" data-name="Path 1602" d="M95.782,9.691a10.63,10.63,0,0,0-1.489-1.74A11.084,11.084,0,0,0,86.057,5,10.913,10.913,0,0,0,78.9,8.268q-.122.125-.239.253a18.149,18.149,0,0,0-10.488,15.5c-.019.306-.027,2.936-.028,3.58L64.8,36.346a1.417,1.417,0,0,0,.153,1.3,1.4,1.4,0,0,0,1.141.615H70.67V43.4a4.545,4.545,0,0,0,4.657,4.525c.205-.006,2.029-.018,5.131-.018h.008a1.905,1.905,0,0,1,1.418.618.586.586,0,0,0,.435.186.6.6,0,0,0,.449-1.005,3.117,3.117,0,0,0-2.3-1.005h-.013c-2.2,0-4.884.01-5.161.019A3.329,3.329,0,0,1,71.876,43.4V37.623a.572.572,0,0,0-.572-.572H66.1a.183.183,0,0,1-.148-.093.192.192,0,0,1-.02-.173l3.378-8.851a.6.6,0,0,0,.04-.213c0-1.333.013-3.4.027-3.628a16.936,16.936,0,0,1,7.7-13.319,10.2,10.2,0,0,0-.845,2.212.6.6,0,0,0,.587.745h0a.606.606,0,0,0,.586-.461,9.151,9.151,0,0,1,2.357-4.156,9.7,9.7,0,0,1,6.37-2.9,9.875,9.875,0,0,1,7.338,2.623,8.922,8.922,0,0,1-.836,13.792,5.668,5.668,0,0,0-2.2,3.567H83.041a5.682,5.682,0,0,0-2.23-3.585,9,9,0,0,1-3.492-5.386.6.6,0,1,0-1.185.241,10.136,10.136,0,0,0,3.957,6.113,4.544,4.544,0,0,1,1.721,2.616h0a.62.62,0,0,0-.585.64v1.792a.571.571,0,0,0,.585.584h.119v.6h-.119a.549.549,0,0,0-.585.556v1.792a.557.557,0,0,0,.585.566h.119v1.2a.6.6,0,0,0,.589.61h.21l.6,1.609a.614.614,0,0,0,.564.4H89.57a.614.614,0,0,0,.564-.4l.6-1.609h.21a.632.632,0,0,0,.63-.61v-1.2h.078a.593.593,0,0,0,.626-.566V30.37a.585.585,0,0,0-.626-.556h-.078v-.6h.078a.607.607,0,0,0,.626-.584V26.834a.655.655,0,0,0-.626-.64h0a4.535,4.535,0,0,1,1.7-2.6,10.223,10.223,0,0,0,4.186-8.209,10.076,10.076,0,0,0-.491-3.117,15.921,15.921,0,0,1,4.358,7.341,15.707,15.707,0,0,1-1.252,11.428q-.013.026-.024.053c-.078.193-1.919,4.758-2.108,6.789a135.663,135.663,0,0,0-.036,16.363H83.537V52.33a.6.6,0,0,0-.6-.6h0a.6.6,0,0,0-.6.6v2.514a.6.6,0,0,0,.6.6H98.609a.624.624,0,0,0,.256-.05.6.6,0,0,0,.359-.589,140.451,140.451,0,0,1,0-16.817,36.4,36.4,0,0,1,2.015-6.422A17.025,17.025,0,0,0,95.782,9.691ZM89.153,35.342H84.312l-.3-.8h5.432Zm1.219-2.01H83.135v-.6h7.238Zm.7-1.809H82.431v-.5h8.645Zm-7.941-1.709v-.6h7.238v.6ZM91.076,28H82.431v-.6h8.645Z" transform="translate(-64.71 -4.982)" fill="#fff"/>
      <path id="Path_1603" data-name="Path 1603" d="M249.477,78.628a3.836,3.836,0,1,0-3.836-3.836A3.836,3.836,0,0,0,249.477,78.628Zm0-6.465a2.629,2.629,0,1,1-2.63,2.63,2.629,2.629,0,0,1,2.63-2.63Z" transform="translate(-227.453 -64.324)" fill="#fff"/>
      <path id="Path_1604" data-name="Path 1604" d="M268.239,95.288a1.739,1.739,0,1,0-1.739-1.739A1.739,1.739,0,0,0,268.239,95.288Zm0-2.271a.533.533,0,1,1-.533.533A.533.533,0,0,1,268.239,93.017Z" transform="translate(-246.215 -83.082)" fill="#fff"/>
      <path id="Path_1605" data-name="Path 1605" d="M213.522,44.612a.615.615,0,0,0-.522.6v1.676a.615.615,0,0,0,.522.6l1.246.2a5.547,5.547,0,0,0,.415.994l-.735,1.015a.6.6,0,0,0,.063.781l1.186,1.185a.6.6,0,0,0,.781.062l1.015-.737a5.537,5.537,0,0,0,.994.412l.2,1.257a.619.619,0,0,0,.6.527h1.676a.619.619,0,0,0,.6-.527l.2-1.248a5.547,5.547,0,0,0,.994-.416l1.015.735a.6.6,0,0,0,.781-.063l1.185-1.186a.6.6,0,0,0,.062-.781l-.737-1.015a5.543,5.543,0,0,0,.412-.994l1.223-.2a.589.589,0,0,0,.493-.6V45.207a.589.589,0,0,0-.493-.6l-1.231-.2a5.509,5.509,0,0,0-.408-.994l.739-1.015a.6.6,0,0,0-.06-.781l-1.185-1.185a.6.6,0,0,0-.78-.062l-1.015.737a5.538,5.538,0,0,0-.994-.412l-.2-1.218a.585.585,0,0,0-.6-.488h-1.676a.585.585,0,0,0-.6.488l-.2,1.228a5.513,5.513,0,0,0-.994.407l-1.015-.74a.6.6,0,0,0-.781.06l-1.186,1.185a.6.6,0,0,0-.062.78l.737,1.015a5.558,5.558,0,0,0-.419.994Zm1.816.933a.611.611,0,0,0,.5-.464,4.35,4.35,0,0,1,.573-1.374.6.6,0,0,0-.02-.677l-.664-.917.458-.457.917.665a.6.6,0,0,0,.677.022,4.338,4.338,0,0,1,1.374-.569.579.579,0,0,0,.464-.473l.178-1.1h.646l.178,1.1a.591.591,0,0,0,.464.483,4.329,4.329,0,0,1,1.374.564.6.6,0,0,0,.677-.024l.917-.667.457.457-.665.916a.6.6,0,0,0-.021.677,4.338,4.338,0,0,1,.569,1.374.584.584,0,0,0,.478.463l1.1.178v.647l-1.1.178a.594.594,0,0,0-.486.464,4.331,4.331,0,0,1-.565,1.374.6.6,0,0,0,.024.677l.666.917-.457.457-.916-.665a.6.6,0,0,0-.677-.022,4.339,4.339,0,0,1-1.374.569.625.625,0,0,0-.463.512l-.178,1.136h-.647l-.178-1.136a.613.613,0,0,0-.464-.5,4.352,4.352,0,0,1-1.374-.574.6.6,0,0,0-.677.019l-.917.664-.457-.458.665-.917a.6.6,0,0,0,.022-.677,4.339,4.339,0,0,1-.569-1.374.619.619,0,0,0-.507-.464l-1.132-.178v-.646Z" transform="translate(-198.093 -35.578)" fill="#fff"/>
    </g>
  </g>
</svg>
