<svg xmlns="http://www.w3.org/2000/svg" width="51" height="51" viewBox="0 0 51 51">
  <defs>
    <style>
      .cls-1 {
        fill: #222;
        fill-rule: evenodd;
      }
    </style>
  </defs>
  <path id="linkedin_logo" data-name="linkedin logo" class="cls-1" d="M25.5,0A25.5,25.5,0,1,1,0,25.5,25.512,25.512,0,0,1,25.5,0ZM17.528,39.831V19.917h-6.62V39.831Zm23.868,0V28.411c0-6.117-3.266-8.962-7.621-8.962a6.575,6.575,0,0,0-5.966,3.288v-2.82H21.191c.088,1.868,0,19.914,0,19.914h6.619V28.71a4.525,4.525,0,0,1,.218-1.616,3.622,3.622,0,0,1,3.4-2.42c2.394,0,3.353,1.827,3.353,4.5V39.831ZM14.262,10.315a3.45,3.45,0,1,0-.088,6.882h.043a3.452,3.452,0,1,0,.045-6.882Z"/>
</svg>
