<svg xmlns="http://www.w3.org/2000/svg" width="153" height="153" viewBox="0 0 153 153">
  <g id="prototyping" transform="translate(-602 -2453)">
    <circle id="Ellipse_88" data-name="Ellipse 88" cx="76.5" cy="76.5" r="76.5" transform="translate(602 2453)" fill="rgba(39,77,189,0.1)"/>
    <circle id="Ellipse_29" data-name="Ellipse 29" cx="35" cy="35" r="35" transform="translate(643 2494)" fill="#333"/>
    <g id="prototyping-2" data-name="prototyping" transform="translate(655.947 2506.944)">
      <path id="Path_1597" data-name="Path 1597" d="M65.242,218.2H69.63a.646.646,0,0,0,0-1.292H65.242a.646.646,0,1,0,0,1.292Z" transform="translate(-59.034 -198.224)" fill="#fff"/>
      <path id="Path_1598" data-name="Path 1598" d="M43.491,18.308a.646.646,0,0,0,.646-.646V3.231A3.234,3.234,0,0,0,40.907,0H35.1a.646.646,0,0,0,0,1.292h5.81a1.941,1.941,0,0,1,1.938,1.938v1.7H28.721v-1.7A1.941,1.941,0,0,1,30.66,1.292h1.422a.646.646,0,0,0,0-1.292H30.66a3.234,3.234,0,0,0-3.231,3.231v9.778H26.352A4.959,4.959,0,0,0,21.4,17.963v7.926a3.666,3.666,0,0,1-3.662,3.662h-.824V19.6a3.234,3.234,0,0,0-3.231-3.231H3.263A3.234,3.234,0,0,0,.032,19.6V40.88a3.234,3.234,0,0,0,3.231,3.231h.474a.646.646,0,1,0,0-1.292H3.263A1.941,1.941,0,0,1,1.324,40.88V39.817h14.3V40.88a1.941,1.941,0,0,1-1.938,1.938H6.752a.646.646,0,0,0,0,1.292h6.93a3.234,3.234,0,0,0,3.231-3.231V30.843h.824a4.959,4.959,0,0,0,4.954-4.954V17.963A3.666,3.666,0,0,1,26.352,14.3h1.077V24.683a3.234,3.234,0,0,0,3.231,3.231H40.907a3.234,3.234,0,0,0,3.231-3.231V20.677a.646.646,0,1,0-1.292,0V22.3H28.721v-8h5.462L33,15.482a.646.646,0,0,0,.914.914L36.2,14.112a.651.651,0,0,0,0-.914l-2.283-2.283a.646.646,0,0,0-.914.914l1.18,1.18H28.721V6.219H42.845V17.662A.646.646,0,0,0,43.491,18.308ZM3.263,17.662H13.682A1.941,1.941,0,0,1,15.62,19.6v1.664H1.324V19.6A1.941,1.941,0,0,1,3.263,17.662ZM15.62,38.525H1.324V22.556h14.3v6.995H12.23a2.028,2.028,0,0,0-1.988-1.645h-.215a.646.646,0,0,0,0,1.292h.215a.733.733,0,0,1,.732.732v.534a.733.733,0,0,1-.732.732H6.623a.733.733,0,0,1-.732-.732V29.93a.733.733,0,0,1,.732-.732h.415a.646.646,0,0,0,0-1.292H6.623A2.027,2.027,0,0,0,4.6,29.93v.534a2.027,2.027,0,0,0,2.025,2.025h3.618a2.028,2.028,0,0,0,1.988-1.645H15.62ZM42.845,23.592v1.091a1.941,1.941,0,0,1-1.938,1.938H30.66a1.941,1.941,0,0,1-1.938-1.938V23.592Z" transform="translate(-0.032)" fill="#fff"/>
      <path id="Path_1599" data-name="Path 1599" d="M382.529,28.38h4.339a.646.646,0,1,0,0-1.292h-4.339a.646.646,0,1,0,0,1.292Z" transform="translate(-348.985 -24.754)" fill="#fff"/>
    </g>
  </g>
</svg>
