<svg id="Layer_5" enable-background="new 0 0 64 64" height="512" viewBox="0 0 64 64" width="512" xmlns="http://www.w3.org/2000/svg" xmlns:xlink="http://www.w3.org/1999/xlink"><linearGradient id="SVGID_1_" gradientUnits="userSpaceOnUse" x1="32" x2="32" y1="63" y2="1"><stop offset="0" stop-color="#9f2fff"/><stop offset="1" stop-color="#0bb1d3"/></linearGradient><path d="m7 45h2v2h-2zm4 2h2v-2h-2zm4-2v2h2v-2zm19-18h-2v4h2zm27.465 15.051c.99.99 1.535 2.307 1.535 3.707 0 2.808-2.224 5.088-5 5.218v.024h-17.963c.168 1.595.997 3.041 2.296 4h2.667c1.654 0 3 1.346 3 3v2c0 1.654-1.346 3-3 3h-30c-1.654 0-3-1.346-3-3v-2c0-1.654 1.346-3 3-3h2.666c1.299-.959 2.128-2.405 2.296-4h-13.962c-2.757 0-5-2.243-5-5v-30c0-2.757 2.243-5 5-5h12.024c1.878-2.812 4.555-5.086 7.797-6.498 1.653-2.184 4.218-3.502 7.033-3.502h.291c2.815 0 5.38 1.318 7.034 3.502 3.242 1.412 5.919 3.686 7.797 6.498h6.024c2.757 0 5 2.243 5 5v23.586zm-12.341-29.051c.321.647.6 1.315.841 2h3.035c1.103 0 2 .897 2 2v18.586l2 2v-21.586c0-1.654-1.346-3-3-3zm-34.124 8c0-1.367.153-2.707.446-4h-8.446v24h38.586l-1-1 1-1-2.871-2.871c-2.806 1.809-6.136 2.871-9.715 2.871-9.925 0-18-8.075-18-18zm34.586 14-2.64-2.64c-.773.947-1.639 1.813-2.586 2.586l2.64 2.64zm2.414-2.414 1 1v-16.586h-2.446c.293 1.293.446 2.633.446 4 0 3.579-1.062 6.909-2.871 9.715l2.871 2.871zm-31-11.586c0 1.7.36 3.315 1 4.782v-.239c0-1.907.742-3.699 2.091-5.048.218-.218.452-.419.695-.607-.392-2.258-.642-4.548-.736-6.842-1.949 2.18-3.05 4.977-3.05 7.954zm3 7.911c2.201 2.501 5.415 4.089 9 4.089s6.799-1.588 9-4.089v-3.368c0-1.373-.534-2.663-1.505-3.634-.52-.52-1.146-.915-1.83-1.171l-.887 7.096-4.778-3.584-4.778 3.584-.887-7.096c-.684.257-1.31.652-1.83 1.171-.971.971-1.505 2.261-1.505 3.634zm10.407-6.105 1.814 1.36.498-3.986c-.081-.027-.158-.061-.236-.094zm2.593-10.806v-2.279c-1.473-.491-2.845-1.291-4-2.329-1.155 1.038-2.527 1.839-4 2.329v2.279c0 2.206 1.794 4 4 4s4-1.794 4-4zm-5.66 5.761-.079.317c-.058.233-.154.448-.261.655l2 2.619 2-2.619c-.108-.207-.204-.422-.262-.655l-.079-.317c-.527.153-1.083.239-1.659.239s-1.132-.086-1.66-.239zm-2.06 2.42.498 3.985 1.814-1.36-2.077-2.719c-.077.033-.154.067-.235.094zm14.72 5.362v.239c.64-1.466 1-3.082 1-4.782 0-2.977-1.101-5.774-3.05-7.953-.094 2.294-.344 4.584-.736 6.842.243.187.476.388.695.607 1.349 1.348 2.091 3.14 2.091 5.047zm-17.276-18.754c-.474.947-.724 2.008-.724 3.065v1.047c0 2.662.225 5.333.645 7.963.25-.093.502-.181.762-.246l1.186-.297c.36-.09.639-.368.728-.728l.182-.728c-1.513-1.09-2.503-2.862-2.503-4.865v-2.279c0-.862.55-1.625 1.368-1.897 1.368-.456 2.631-1.236 3.651-2.257l.981-.981.98.98c1.021 1.021 2.283 1.801 3.652 2.258.818.272 1.368 1.034 1.368 1.897v2.279c0 2.003-.99 3.776-2.503 4.866l.182.728c.09.359.368.638.728.727l1.188.298c.26.065.512.153.761.246.42-2.63.645-5.301.645-7.962v-1.049c0-1.058-.25-2.118-.724-3.065-1.169-2.337-3.518-3.789-6.131-3.789h-.291c-2.614 0-4.963 1.452-6.131 3.789zm-9.724 14.211c0 8.822 7.178 16 16 16s16-7.178 16-16c0-5.506-2.8-10.514-7.312-13.426.199.744.312 1.511.312 2.28v.463c3.175 2.672 5 6.529 5 10.683 0 7.72-6.28 14-14 14s-14-6.28-14-14c0-4.154 1.825-8.011 5-10.683v-.463c0-.769.113-1.536.312-2.281-4.512 2.913-7.312 7.921-7.312 13.427zm-11 28h47.586l-6-6h-40.586c-1.103 0-2-.897-2-2v-24c0-1.103.897-2 2-2h9.035c.242-.685.521-1.353.841-2h-10.876c-1.654 0-3 1.346-3 3v30c0 1.654 1.346 3 3 3zm39 8h-30c-.552 0-1 .448-1 1v2c0 .552.448 1 1 1h30c.552 0 1-.448 1-1v-2c0-.552-.448-1-1-1zm-6.963-6h-16.074c-.114 1.464-.634 2.845-1.492 4h19.059c-.858-1.155-1.378-2.536-1.493-4zm22.963-5.242c0-.866-.337-1.681-.949-2.293l-8.051-8.051-4.586 4.586 8.051 8.051c.612.612 1.427.949 2.293.949 1.788 0 3.242-1.454 3.242-3.242zm-3-.758c-.552 0-1 .448-1 1s.448 1 1 1 1-.448 1-1-.448-1-1-1zm-45-26h-4v2h4zm0 4h-4v2h4zm0 4h-4v2h4zm0 4h-4v2h4zm6 4h-2v2h2zm-6 2h2v-2h-2zm-4 0h2v-2h-2z" fill="url(#SVGID_1_)"/></svg>