<svg xmlns="http://www.w3.org/2000/svg" width="153" height="153" viewBox="0 0 153 153">
  <g id="storyboard" transform="translate(-387 -2676)">
    <circle id="Ellipse_92" data-name="Ellipse 92" cx="76.5" cy="76.5" r="76.5" transform="translate(387 2676)" fill="#e9edf8"/>
    <circle id="Ellipse_36" data-name="Ellipse 36" cx="35" cy="35" r="35" transform="translate(429 2719)" fill="#333"/>
    <g id="storyboard-2" data-name="storyboard" transform="translate(441.199 2732.477)">
      <path id="Path_1616" data-name="Path 1616" d="M53.847,11.006H35.809V8.752A.752.752,0,0,0,35.057,8H27.541a.752.752,0,0,0-.752.752v2.255H8.752A.752.752,0,0,0,8,11.758V43.325a.752.752,0,0,0,.752.752H21.529v2.255a.752.752,0,0,0,.752.752h1.9l-2.594,6.485a.752.752,0,0,0,.7,1.031h3.006a.752.752,0,0,0,.7-.473L28.8,47.083H33.8l2.818,7.043a.752.752,0,0,0,.7.473h3.006a.752.752,0,0,0,.7-1.031l-2.594-6.485h1.9a.752.752,0,0,0,.752-.752V44.076H53.847a.752.752,0,0,0,.752-.752V11.758a.752.752,0,0,0-.752-.752ZM28.293,9.5h6.013v1.5H28.293ZM24.777,53.1H23.391L25.8,47.083h1.387Zm14.43,0H37.821l-2.405-6.013H36.8Zm.359-7.516H23.032v-1.5H39.567ZM53.1,42.573H9.5V12.51H53.1Z" transform="translate(-8 -8)" fill="#fff"/>
      <path id="Path_1617" data-name="Path 1617" d="M184,72.752v9.019a.752.752,0,0,0,.752.752h12.025a.752.752,0,0,0,.752-.752V72.752a.752.752,0,0,0-.752-.752H184.752A.752.752,0,0,0,184,72.752Zm1.5.752h10.522v7.516H185.5Z" transform="translate(-167.465 -65.987)" fill="#fff"/>
      <path id="Path_1618" data-name="Path 1618" d="M44.777,72H32.752a.752.752,0,0,0-.752.752v9.019a.752.752,0,0,0,.752.752H44.777a.752.752,0,0,0,.752-.752V72.752A.752.752,0,0,0,44.777,72Zm-.752,9.019H33.5V73.5H44.025Z" transform="translate(-29.745 -65.987)" fill="#fff"/>
      <path id="Path_1619" data-name="Path 1619" d="M336.752,82.522h12.025a.752.752,0,0,0,.752-.752V72.752a.752.752,0,0,0-.752-.752H336.752a.752.752,0,0,0-.752.752v9.019A.752.752,0,0,0,336.752,82.522ZM337.5,73.5h10.522v7.516H337.5Z" transform="translate(-305.185 -65.987)" fill="#fff"/>
      <path id="Path_1620" data-name="Path 1620" d="M196.777,192H184.752a.752.752,0,0,0,0,1.5h12.025a.752.752,0,1,0,0-1.5Z" transform="translate(-167.465 -174.713)" fill="#fff"/>
      <path id="Path_1621" data-name="Path 1621" d="M44.777,192H32.752a.752.752,0,1,0,0,1.5H44.777a.752.752,0,1,0,0-1.5Z" transform="translate(-29.745 -174.713)" fill="#fff"/>
      <path id="Path_1622" data-name="Path 1622" d="M336.752,193.5h12.025a.752.752,0,0,0,0-1.5H336.752a.752.752,0,1,0,0,1.5Z" transform="translate(-305.185 -174.713)" fill="#fff"/>
      <path id="Path_1623" data-name="Path 1623" d="M196.777,224H184.752a.752.752,0,0,0-.752.752v9.019a.752.752,0,0,0,.752.752h12.025a.752.752,0,0,0,.752-.752v-9.019A.752.752,0,0,0,196.777,224Zm-.752,9.019H185.5V225.5h10.522Z" transform="translate(-167.465 -203.707)" fill="#fff"/>
      <path id="Path_1624" data-name="Path 1624" d="M44.777,224H32.752a.752.752,0,0,0-.752.752v9.019a.752.752,0,0,0,.752.752H44.777a.752.752,0,0,0,.752-.752v-9.019A.752.752,0,0,0,44.777,224Zm-.752,9.019H33.5V225.5H44.025Z" transform="translate(-29.745 -203.707)" fill="#fff"/>
      <path id="Path_1625" data-name="Path 1625" d="M336.752,234.522h12.025a.752.752,0,0,0,.752-.752v-9.019a.752.752,0,0,0-.752-.752H336.752a.752.752,0,0,0-.752.752v9.019A.752.752,0,0,0,336.752,234.522Zm.752-9.019h10.522v7.516H337.5Z" transform="translate(-305.185 -203.707)" fill="#fff"/>
      <path id="Path_1626" data-name="Path 1626" d="M196.777,344H184.752a.752.752,0,0,0,0,1.5h12.025a.752.752,0,1,0,0-1.5Z" transform="translate(-167.465 -312.433)" fill="#fff"/>
      <path id="Path_1627" data-name="Path 1627" d="M44.777,344H32.752a.752.752,0,1,0,0,1.5H44.777a.752.752,0,1,0,0-1.5Z" transform="translate(-29.745 -312.433)" fill="#fff"/>
      <path id="Path_1628" data-name="Path 1628" d="M336.752,345.5h12.025a.752.752,0,0,0,0-1.5H336.752a.752.752,0,1,0,0,1.5Z" transform="translate(-305.185 -312.433)" fill="#fff"/>
    </g>
  </g>
</svg>
