<svg xmlns="http://www.w3.org/2000/svg" width="51" height="51" viewBox="0 0 51 51">
  <defs>
    <style>
      .cls-1 {
        fill: #222;
        fill-rule: evenodd;
      }
    </style>
  </defs>
  <path id="twitter_logo" data-name="twitter logo" class="cls-1" d="M25.5,0A25.5,25.5,0,1,1,0,25.5,25.512,25.512,0,0,1,25.5,0ZM21.009,39.063c11.284,0,17.454-9.35,17.454-17.454,0-.267,0-.534-.013-.789a12.566,12.566,0,0,0,3.066-3.18,12.449,12.449,0,0,1-3.524.967,6.131,6.131,0,0,0,2.7-3.4A12.424,12.424,0,0,1,36.8,16.7a6.138,6.138,0,0,0-10.61,4.2,5.623,5.623,0,0,0,.165,1.4,17.4,17.4,0,0,1-12.645-6.412,6.131,6.131,0,0,0,1.908,8.18,6.026,6.026,0,0,1-2.773-.763v.076a6.141,6.141,0,0,0,4.923,6.017,6.118,6.118,0,0,1-1.616.216,5.85,5.85,0,0,1-1.158-.115,6.125,6.125,0,0,0,5.725,4.262,12.331,12.331,0,0,1-7.62,2.621,11.164,11.164,0,0,1-1.463-.089,17.091,17.091,0,0,0,9.376,2.773Z"/>
</svg>
