<svg xmlns="http://www.w3.org/2000/svg" width="153" height="153" viewBox="0 0 153 153">
  <g id="user_research" data-name="user research" transform="translate(-164 -2453)">
    <circle id="Ellipse_89" data-name="Ellipse 89" cx="76.5" cy="76.5" r="76.5" transform="translate(164 2453)" fill="rgba(39,77,189,0.1)"/>
    <circle id="Ellipse_30" data-name="Ellipse 30" cx="35" cy="35" r="35" transform="translate(205 2494)" fill="#333"/>
    <g id="user" transform="translate(212.137 2502.156)">
      <path id="Path_1574" data-name="Path 1574" d="M3.843,47.479H11.53a.961.961,0,0,0,.961-.961v-.366l7.173,2.979a16.622,16.622,0,0,0,12.227.136l14.843-5.66A3.5,3.5,0,0,0,48.7,41.735a3.56,3.56,0,0,0,.056-2.757,3.49,3.49,0,0,0-1.483-1.729A20.153,20.153,0,0,0,37.363,5.062a5.765,5.765,0,0,0-11.313,0A20.155,20.155,0,0,0,13.481,33.067H12.49a.961.961,0,0,0-.961-.961H3.843a.961.961,0,0,0-.961.961H0v1.921H2.882V44.6H0v1.922H2.882A.961.961,0,0,0,3.843,47.479ZM25.942,7.1v4.6a4.411,4.411,0,0,0,1.922,3.656v.624l-4.047,1.012a4.8,4.8,0,0,0-3.64,4.661v8.529H22.1V21.655a2.883,2.883,0,0,1,2.183-2.8l4.775-1.194a.961.961,0,0,0,.728-.932V14.812a.961.961,0,0,0-.531-.86,2.5,2.5,0,0,1-1.39-2.249V6.164a3.843,3.843,0,0,1,7.686,0V11.7a2.5,2.5,0,0,1-1.39,2.249.961.961,0,0,0-.531.86v1.922a.961.961,0,0,0,.728.932l4.775,1.194a2.882,2.882,0,0,1,2.183,2.8v8.529h1.922V21.655A4.8,4.8,0,0,0,39.6,16.994L35.55,15.983v-.625a4.41,4.41,0,0,0,1.921-3.651V7.1a18.228,18.228,0,0,1,7.643,29.679,3.43,3.43,0,0,0-.969.239l-6.23,2.645a3.221,3.221,0,0,0-3.327-3.716H27.136a4.888,4.888,0,0,1-2.173-.513,22.564,22.564,0,0,0-9.32-2.348A18.238,18.238,0,0,1,25.942,7.1ZM14.926,34.988A20.626,20.626,0,0,1,24.1,37.155a6.8,6.8,0,0,0,3.031.716h7.453a1.441,1.441,0,0,1,.317,2.845c-.126.012-.249.037-.377.037H23.059v1.921h11.53c.019,0,.037-.006.058-.006a5.92,5.92,0,0,0,2.217-.47l8.033-3.41a1.526,1.526,0,0,1,1.2,0,1.586,1.586,0,0,1,.865.895,1.647,1.647,0,0,1-.026,1.277,1.586,1.586,0,0,1-.89.852L31.2,47.472a14.7,14.7,0,0,1-10.811-.116l-7.9-3.285V34.988ZM4.8,34.028h5.765v11.53H4.8Zm0,0" transform="translate(0 -0.409)" fill="#fff"/>
      <path id="Path_1575" data-name="Path 1575" d="M673.168,754.384l1.489-.567.684,1.8-1.488.567Zm0,0" transform="translate(-631.762 -707.475)" fill="#fff"/>
      <path id="Path_1576" data-name="Path 1576" d="M319.458,776.756l8.8-3.363-.684-1.8-8.806,3.357a14.693,14.693,0,0,1-10.811-.116l-.81-.336-.738,1.774.817.339a16.622,16.622,0,0,0,12.227.136Zm0,0" transform="translate(-287.567 -724.163)" fill="#fff"/>
      <path id="Path_1577" data-name="Path 1577" d="M390.516,375.148h1.921V383.8h-1.921Zm0,0" transform="translate(-366.496 -352.099)" fill="#fff"/>
      <path id="Path_1578" data-name="Path 1578" d="M609.2,375.148h1.921V383.8H609.2Zm0,0" transform="translate(-571.732 -352.099)" fill="#fff"/>
      <path id="Path_1579" data-name="Path 1579" d="M779,126.635a22.129,22.129,0,0,1,4.632,22.386l1.813.64a24.058,24.058,0,0,0-5.035-24.333Zm0,0" transform="translate(-731.081 -117.645)" fill="#fff"/>
      <path id="Path_1580" data-name="Path 1580" d="M725.059,75.122c.589.424,1.171.888,1.73,1.378l1.27-1.441c-.6-.532-1.235-1.036-1.877-1.5Zm0,0" transform="translate(-680.461 -69.063)" fill="#fff"/>
      <path id="Path_1581" data-name="Path 1581" d="M126.293,83.363l1.916.158a21.969,21.969,0,0,1,9.8-16.573l-1.064-1.6A23.89,23.89,0,0,0,126.293,83.363Zm0,0" transform="translate(-118.525 -61.353)" fill="#fff"/>
    </g>
  </g>
</svg>
