<svg xmlns="http://www.w3.org/2000/svg" width="153" height="153" viewBox="0 0 153 153">
  <g id="wireframe" transform="translate(-164 -2678)">
    <circle id="Ellipse_93" data-name="Ellipse 93" cx="76.5" cy="76.5" r="76.5" transform="translate(164 2678)" fill="#ffecea"/>
    <circle id="Ellipse_27" data-name="Ellipse 27" cx="35" cy="35" r="35" transform="translate(205 2719)" fill="#333"/>
    <g id="wireframe_copy" data-name="wireframe copy" transform="translate(222.686 2731.365)">
      <path id="Path_1582" data-name="Path 1582" d="M105.073,5H71.56a.56.56,0,0,0-.56.56V51.3a.56.56,0,0,0,.56.56h33.513a.56.56,0,0,0,.56-.56V5.56A.56.56,0,0,0,105.073,5Zm-.653,3.174h-25.2a.56.56,0,0,0,0,1.12h25.2V50.742H72.12V9.294h3.174a.56.56,0,1,0,0-1.12H72.12V6.12h32.3Z" transform="translate(-71 -5)" fill="#fff"/>
      <path id="Path_1583" data-name="Path 1583" d="M89.56,73a.56.56,0,0,0-.56.56v.187a.56.56,0,1,0,1.12,0V73.56A.56.56,0,0,0,89.56,73Z" transform="translate(-87.32 -66.652)" fill="#fff"/>
      <path id="Path_1584" data-name="Path 1584" d="M89.56,95a.56.56,0,0,0-.56.56v8.588a.56.56,0,1,0,1.12,0V95.56A.56.56,0,0,0,89.56,95Z" transform="translate(-87.32 -86.598)" fill="#fff"/>
      <path id="Path_1585" data-name="Path 1585" d="M119.042,233H107.56a.56.56,0,0,0-.56.56v14.749a.56.56,0,0,0,.56.56h11.482a.56.56,0,0,0,.56-.56V233.56A.56.56,0,0,0,119.042,233Zm-1.157,1.12-4.581,5.9-4.581-5.9Zm-9.765,1.063,4.456,5.741-4.456,5.74Zm.6,12.566,4.581-5.9,4.581,5.9Zm9.759-1.085-4.456-5.741,4.456-5.741Z" transform="translate(-103.639 -211.716)" fill="#fff"/>
      <path id="Path_1586" data-name="Path 1586" d="M282.042,233H270.56a.56.56,0,0,0-.56.56v14.749a.56.56,0,0,0,.56.56h11.482a.56.56,0,0,0,.56-.56V233.56A.56.56,0,0,0,282.042,233Zm-1.163,1.12-4.581,5.9-4.581-5.9Zm-9.759,1.063,4.456,5.741-4.456,5.74Zm.6,12.566,4.581-5.9,4.581,5.9Zm9.766-1.085-4.456-5.741,4.456-5.741Z" transform="translate(-251.423 -211.716)" fill="#fff"/>
      <path id="Path_1587" data-name="Path 1587" d="M120.843,419H109.766a.56.56,0,1,0,0,1.12h11.077a.56.56,0,0,0,0-1.12Z" transform="translate(-105.639 -380.353)" fill="#fff"/>
      <path id="Path_1588" data-name="Path 1588" d="M283.773,419H272.7a.56.56,0,1,0,0,1.12h11.077a.56.56,0,0,0,0-1.12Z" transform="translate(-253.36 -380.353)" fill="#fff"/>
      <path id="Path_1589" data-name="Path 1589" d="M120.843,437H109.766a.56.56,0,1,0,0,1.12h11.077a.56.56,0,0,0,0-1.12Z" transform="translate(-105.639 -396.673)" fill="#fff"/>
      <path id="Path_1590" data-name="Path 1590" d="M283.773,437H272.7a.56.56,0,1,0,0,1.12h11.077a.56.56,0,0,0,0-1.12Z" transform="translate(-253.36 -396.673)" fill="#fff"/>
      <path id="Path_1591" data-name="Path 1591" d="M120.843,456H109.766a.56.56,0,1,0,0,1.12h11.077a.56.56,0,1,0,0-1.12Z" transform="translate(-105.639 -413.899)" fill="#fff"/>
      <path id="Path_1592" data-name="Path 1592" d="M283.773,456H272.7a.56.56,0,1,0,0,1.12h11.077a.56.56,0,0,0,0-1.12Z" transform="translate(-253.36 -413.899)" fill="#fff"/>
      <path id="Path_1593" data-name="Path 1593" d="M108,72.56V84.042a.56.56,0,0,0,.56.56h26.6a.56.56,0,0,0,.56-.56V72.56a.56.56,0,0,0-.56-.56h-26.6A.56.56,0,0,0,108,72.56Zm3.245,10.922,10.571-4.555,10.571,4.555Zm23.267-.333L123.2,78.275,134.512,73.4ZM132.387,73.12l-10.571,4.555L111.245,73.12ZM109.12,73.4l11.311,4.874L109.12,83.149Z" transform="translate(-104.546 -65.746)" fill="#fff"/>
    </g>
  </g>
</svg>
